<svg width="28" height="28" viewBox="0 0 28 28" fill="none" xmlns="http://www.w3.org/2000/svg">
<path fill-rule="evenodd" clip-rule="evenodd" d="M18.8514 9.60508C18.8514 12.3464 16.666 14.5445 13.9405 14.5445C11.2151 14.5445 9.02969 12.3464 9.02969 9.60508C9.02969 6.86273 11.2151 4.66675 13.9405 4.66675C16.666 4.66675 18.8514 6.86273 18.8514 9.60508ZM13.9405 23.3334C9.93745 23.3334 6.51939 22.6988 6.51939 20.1603C6.51939 17.6207 9.91551 16.963 13.9405 16.963C17.9435 16.963 21.3616 17.5976 21.3616 20.1372C21.3616 22.6757 17.9655 23.3334 13.9405 23.3334ZM20.95 9.6942C20.95 11.0916 20.5332 12.3935 19.8019 13.4757C19.7267 13.5871 19.7936 13.7373 19.9262 13.7604C20.109 13.792 20.2981 13.8098 20.4903 13.8151C22.4072 13.8655 24.1277 12.6246 24.6031 10.7565C25.3071 7.98155 23.2398 5.49032 20.6073 5.49032C20.3211 5.49032 20.0474 5.52079 19.781 5.57543C19.7445 5.58383 19.7058 5.60064 19.6849 5.63322C19.6598 5.67314 19.6786 5.72673 19.7037 5.7614C20.4945 6.8762 20.95 8.23582 20.95 9.6942ZM24.1246 15.7647C25.4126 16.018 26.2598 16.5349 26.6108 17.2862C26.9075 17.9029 26.9075 18.6185 26.6108 19.2342C26.0739 20.3994 24.3429 20.7735 23.6702 20.8701C23.5312 20.8911 23.4195 20.7703 23.4341 20.6306C23.7778 17.4017 21.044 15.8709 20.3368 15.5189C20.3065 15.5031 20.3002 15.4789 20.3033 15.4642C20.3054 15.4537 20.3179 15.4369 20.3409 15.4338C21.8713 15.4054 23.5166 15.6155 24.1246 15.7647ZM7.50996 13.8149C7.70218 13.8097 7.89021 13.7928 8.07407 13.7603C8.20674 13.7372 8.27359 13.5869 8.19838 13.4755C7.46713 12.3933 7.05032 11.0915 7.05032 9.69403C7.05032 8.23565 7.50578 6.87603 8.29657 5.76123C8.32165 5.72656 8.33941 5.67297 8.31538 5.63304C8.29449 5.60152 8.25479 5.58366 8.21927 5.57525C7.95184 5.52062 7.67815 5.49015 7.39192 5.49015C4.75944 5.49015 2.6921 7.98138 3.39723 10.7563C3.87254 12.6245 5.59306 13.8653 7.50996 13.8149ZM7.69642 15.4636C7.69955 15.4794 7.69328 15.5025 7.66403 15.5193C6.95577 15.8713 4.22196 17.4022 4.56564 20.63C4.58027 20.7707 4.46954 20.8905 4.3306 20.8706C3.65785 20.7739 1.92689 20.3998 1.38995 19.2346C1.09223 18.6178 1.09223 17.9034 1.38995 17.2866C1.74095 16.5353 2.5871 16.0184 3.87514 15.7641C4.48416 15.616 6.12842 15.4058 7.65986 15.4342C7.68284 15.4374 7.69433 15.4542 7.69642 15.4636Z" fill="#FFCF00"/>
</svg>
