<svg width="50" height="50" viewBox="0 0 50 50" fill="none" xmlns="http://www.w3.org/2000/svg">
<rect width="50" height="50" rx="15" fill="#FFE7DB"/>
<path fill-rule="evenodd" clip-rule="evenodd" d="M19.5521 13.3339H30.4476C34.4155 13.3339 36.6555 15.5844 36.6671 19.5522V30.4489C36.6671 34.4155 34.4155 36.6672 30.4476 36.6672H19.5521C15.5843 36.6672 13.3338 34.4155 13.3338 30.4489V19.5522C13.3338 15.5844 15.5843 13.3339 19.5521 13.3339ZM25.0576 31.8372C25.5605 31.8372 25.9793 31.4639 26.026 30.9622V19.0739C26.0726 18.7122 25.8988 18.3494 25.5838 18.1522C25.256 17.9539 24.8593 17.9539 24.5455 18.1522C24.2293 18.3494 24.0555 18.7122 24.0893 19.0739V30.9622C24.1488 31.4639 24.5676 31.8372 25.0576 31.8372ZM30.4255 31.8372C30.9155 31.8372 31.3343 31.4639 31.3938 30.9622V27.1355C31.4276 26.761 31.2538 26.4122 30.9376 26.2139C30.6238 26.0155 30.2271 26.0155 29.9005 26.2139C29.5843 26.4122 29.4105 26.761 29.4571 27.1355V30.9622C29.5038 31.4639 29.9226 31.8372 30.4255 31.8372ZM20.5893 30.9622C20.5426 31.4639 20.1238 31.8372 19.621 31.8372C19.1193 31.8372 18.6993 31.4639 18.6538 30.9622V22.9006C18.6188 22.5377 18.7926 22.1772 19.1088 21.9789C19.4226 21.7806 19.8205 21.7806 20.1355 21.9789C20.4493 22.1772 20.6255 22.5377 20.5893 22.9006V30.9622Z" fill="#FEAD86"/>
</svg>
