<svg width="28" height="28" viewBox="0 0 28 28" fill="none" xmlns="http://www.w3.org/2000/svg">
<path fill-rule="evenodd" clip-rule="evenodd" d="M23.7989 10.6704L24.6392 11.5104C25.3045 12.1637 25.6663 13.0504 25.6663 13.9837C25.678 14.917 25.3162 15.8049 24.6626 16.4687C24.6548 16.4773 24.647 16.4848 24.6392 16.4923C24.6354 16.4961 24.6315 16.4998 24.6276 16.5037L23.7989 17.332C23.4722 17.6587 23.2854 18.102 23.2854 18.5699V19.7704C23.2854 21.707 21.7098 23.2832 19.7725 23.2832H18.5704C18.1035 23.2832 17.66 23.4687 17.3333 23.7954L16.493 24.6354C15.8044 25.3249 14.9057 25.662 14.0071 25.662C13.1084 25.662 12.2097 25.3249 11.5212 24.6482L10.6692 23.7954C10.3424 23.4687 9.8989 23.2832 9.43206 23.2832H8.22996C6.29259 23.2832 4.71702 21.707 4.71702 19.7704V18.5699C4.71702 18.102 4.53029 17.6587 4.2035 17.3204L3.3632 16.492C1.9977 15.1282 1.98603 12.8987 3.35153 11.5232L4.2035 10.6704C4.53029 10.3437 4.71702 9.90038 4.71702 9.42205V8.23205C4.71702 6.29538 6.29259 4.72155 8.22996 4.72155H9.43206C9.8989 4.72155 10.3424 4.53371 10.6692 4.20705L11.5095 3.36705C12.875 1.99155 15.1041 1.99155 16.4813 3.35655L17.3333 4.20705C17.66 4.53371 18.1035 4.72155 18.5704 4.72155H19.7725C21.7098 4.72155 23.2854 6.29538 23.2854 8.23205V9.43488C23.2854 9.90038 23.4722 10.3437 23.7989 10.6704ZM10.996 18.0204C11.2761 18.0204 11.5329 17.9154 11.7196 17.7171L17.7184 11.7216C18.1152 11.3249 18.1152 10.6704 17.7184 10.2737C17.3216 9.87824 16.6797 9.87824 16.2829 10.2737L10.2841 16.2704C9.88726 16.6671 9.88726 17.3204 10.2841 17.7171C10.4708 17.9154 10.7276 18.0204 10.996 18.0204ZM15.9794 16.9937C15.9794 17.5654 16.4346 18.0204 17.0065 18.0204C17.5667 18.0204 18.0218 17.5654 18.0218 16.9937C18.0218 16.4349 17.5667 15.9787 17.0065 15.9787C16.4346 15.9787 15.9794 16.4349 15.9794 16.9937ZM11.0076 9.98201C11.5678 9.98201 12.023 10.437 12.023 10.997C12.023 11.5698 11.5678 12.0237 11.0076 12.0237C10.4474 12.0237 9.98056 11.5698 9.98056 10.997C9.98056 10.437 10.4474 9.98201 11.0076 9.98201Z" fill="#51A690"/>
</svg>
